# xmcd
#
# Track frame offsets: 
#        150
#        18719
#        37724
#        54326
#        71390
#        87630
#        104379
#        125739
#        145690
#
# Disc length: 2279 seconds
#
# Revision: 0
# Processed by: cddbd v1.5.2PL0 Copyright (c) Steve Scherf et al.
# Submitted via: ExactAudioCopy v0.99pb5
#
DISCID=7608e509
DTITLE=Cody Jasper - Cody Jasper
DYEAR=2014
DGENRE=Blues
TTITLE0=Black Cadillac
TTITLE1=Cherry Pie
TTITLE2=Evil Woman
TTITLE3=The Deal Is Done
TTITLE4=Holy Water
TTITLE5=Mona Lisa
TTITLE6=Rosemary
TTITLE7=Snow White
TTITLE8=Somebody
EXTD=
EXTT0=
EXTT1=
EXTT2=
EXTT3=
EXTT4=
EXTT5=
EXTT6=
EXTT7=
EXTT8=
PLAYORDER=
